<svg id="レイヤー_1" data-name="レイヤー 1" xmlns="http://www.w3.org/2000/svg" viewBox="0 0 37.98 12.77"><defs><style>.cls-1{fill:#fff;}</style></defs><title>logo</title><path class="cls-1" d="M267,189.2a3.67,3.67,0,0,0,1-.55,3.76,3.76,0,0,0,.51-.47h-1.31v-.45h1.48v-.45h.51v.45h.74v.45h-.74v1.25a.43.43,0,0,1-.08.27c-.13.15-.31.15-.58.15h-.37l-.1-.45h.46c.07,0,.16,0,.16-.1v-.7a3.07,3.07,0,0,1-.47.44,4,4,0,0,1-.85.53l-.31-.37Z" transform="translate(-263.04 -177.21)"/><polygon class="cls-1" points="9.28 11.09 9.28 11.58 6.98 11.58 6.98 11.09 9.28 11.09 9.28 11.09"/><path class="cls-1" d="M274.88,187.79h-2v-.42h2v.42Zm.11-.27a1.57,1.57,0,0,0-.11-.44l.27,0a1.71,1.71,0,0,1,.13.43l-.29,0Zm.43.59v.44h-1v.06a1.26,1.26,0,0,1-.34.84,2.06,2.06,0,0,1-1.07.43l-.22-.43a1.71,1.71,0,0,0,.86-.27.92.92,0,0,0,.23-.57v-.06h-1.2v-.44Zm0-.6c0-.18-.11-.4-.12-.45l.27,0a2.36,2.36,0,0,1,.13.44l-.28,0Z" transform="translate(-263.04 -177.21)"/><path class="cls-1" d="M276.35,189h-.54v-1.62h.54V189Zm1.59-.45c0,1.13-1,1.26-1.77,1.34l-.2-.45a2.94,2.94,0,0,0,1.12-.24.64.64,0,0,0,.29-.58V187.3h.56v1.22Z" transform="translate(-263.04 -177.21)"/><path class="cls-1" d="M278.43,188.83a2.92,2.92,0,0,0-.26-.75l.42-.1a2.94,2.94,0,0,1,.29.75l-.45.1Zm.74-.15a2.8,2.8,0,0,0-.23-.74l.42-.08a2.25,2.25,0,0,1,.24.73l-.43.09Zm-.73.84a2,2,0,0,0,1.23-.61,2.38,2.38,0,0,0,.41-1l.51.11c-.24.77-.35,1.14-.94,1.53a2.74,2.74,0,0,1-1,.38l-.24-.37Z" transform="translate(-263.04 -177.21)"/><path class="cls-1" d="M283.5,187.61a2.43,2.43,0,0,1-2.38,2.25l-.21-.43a1.94,1.94,0,0,0,1.93-1.38h-1a2.6,2.6,0,0,1-.78.64l-.34-.35a2.13,2.13,0,0,0,1.06-1.12l.56.06a2.26,2.26,0,0,1-.18.33Z" transform="translate(-263.04 -177.21)"/><path class="cls-1" d="M285.8,187.54v-.37h.46v.37h.67V188h-.67v.28H287v.42h-.58a1.81,1.81,0,0,0,.64.63l-.2.5a2,2,0,0,1-.58-.68V190h-.46V189a2.66,2.66,0,0,1-.62.76l-.29-.42a2.11,2.11,0,0,0,.74-.72h-.58l.15.15-.29.34a1.37,1.37,0,0,1-.18-.42V190h-.45v-1.12a1.8,1.8,0,0,1-.31.61l-.16-.58a1.91,1.91,0,0,0,.43-.81h-.36v-.4h.4v-.49h.45v.49H285v.18a1.88,1.88,0,0,0,.21-.61l.44,0c0,.08,0,.15-.06.28Zm-.52.7-.25-.18h-.3v.13a1.79,1.79,0,0,0,.31.46v-.41Zm.52,0V188h-.32a1.15,1.15,0,0,1-.16.28Z" transform="translate(-263.04 -177.21)"/><path class="cls-1" d="M289.94,187.57h.31V188h-.91a3.5,3.5,0,0,0,.2,1.1c0,.09.12.3.21.3s.27-.21.35-.41l.2.48c-.06.17-.23.5-.54.5a.61.61,0,0,1-.4-.17,2.77,2.77,0,0,1-.52-1.8h-1.68v-.43h1.66v-.4h.53v.4h.32a2.27,2.27,0,0,0-.24-.27l.42-.15c.05,0,.09.06.32.34l-.21.08Zm-2.81,1.86h.14l.47,0v-.71h-.52v-.43h1.54v.43h-.52v.67l.63-.08v.42c-.38.07-.58.09-1.69.2l-.06-.47Z" transform="translate(-263.04 -177.21)"/><path class="cls-1" d="M293,190a1.73,1.73,0,0,0-.13-.21c-1.4.1-1.51.11-2.26.13l-.08-.46H291a3.54,3.54,0,0,0,.22-.51h-.73v-.42h2.95v.42h-.67a5.46,5.46,0,0,1,.68.82L293,190Zm-.29-1.05h-.92c-.09.2-.16.33-.26.51h.32l.74,0c-.13-.16-.19-.22-.27-.31l.39-.17Zm-1.59-.79a5.2,5.2,0,0,1-.5.22l-.25-.45a2.89,2.89,0,0,0,1.34-.77h.58a3.29,3.29,0,0,0,1.32.77l-.26.44a3.08,3.08,0,0,1-.49-.23v.18h-1.74v-.16Zm1.39-.23a2.87,2.87,0,0,1-.52-.42,2.07,2.07,0,0,1-.5.42Z" transform="translate(-263.04 -177.21)"/><path class="cls-1" d="M294.62,190h-.5v-1l-.34.24-.13-.53a2.1,2.1,0,0,0,.78-.7h-.72v-.42h.41v-.4h.5v.4H295V188a1.72,1.72,0,0,1-.25.42,1.65,1.65,0,0,0,.44.32l-.24.42a1.84,1.84,0,0,1-.28-.28V190Zm1-2.79h.51v.73h.64v.46h-.64v1.07h.69v.45h-2v-.45h.75v-1.07H295v-.46h.59v-.73Z" transform="translate(-263.04 -177.21)"/><path class="cls-1" d="M270.18,178.47a4.15,4.15,0,0,0-2.95-1.22,4.2,4.2,0,0,0-4.19,4.2,4.13,4.13,0,0,0,1.22,3,4.19,4.19,0,0,0,5.93,0,4.2,4.2,0,0,0,0-5.93Zm-2.95,5.37a2.31,2.31,0,0,1-1.64-.7,2.48,2.48,0,0,1-.72-1.72,2.4,2.4,0,0,1,.7-1.7,2.35,2.35,0,0,1,3.31,0,2.42,2.42,0,0,1-1.65,4.12Z" transform="translate(-263.04 -177.21)"/><path class="cls-1" d="M277.05,178.41a4.89,4.89,0,0,0-3.28-.92H272v7.9h1.81a4.69,4.69,0,0,0,3.26-.91,4.08,4.08,0,0,0,0-6.07Zm-3.21.76a3.29,3.29,0,0,1,1.92.42,2.27,2.27,0,0,1,.93,1.88,2.21,2.21,0,0,1-.85,1.76,3.2,3.2,0,0,1-2,.48v-4.54Z" transform="translate(-263.04 -177.21)"/><polygon class="cls-1" points="20.55 2.07 20.55 0.28 15.93 0.28 15.93 8.17 20.55 8.17 20.55 6.38 17.77 6.38 17.77 5.18 20.55 5.18 20.55 3.39 17.77 3.39 17.77 2.07 20.55 2.07 20.55 2.07"/><polygon class="cls-1" points="27.13 0.28 27.13 8.17 29.09 8.17 29.09 0.28 27.13 0.28 27.13 0.28"/><polygon class="cls-1" points="23.5 6.22 23.5 0.27 21.53 0.27 21.53 8.17 26.45 8.17 26.45 6.22 23.5 6.22 23.5 6.22"/><path class="cls-1" d="M297,183.73a2.3,2.3,0,1,1,1.8-3.71H301a4.22,4.22,0,1,0,0,2.86h-2.19a2.28,2.28,0,0,1-1.78.85Z" transform="translate(-263.04 -177.21)"/></svg>